<mxfile host="app.diagrams.net" agent="Mozilla/5.0 (Windows NT 10.0; Win64; x64) AppleWebKit/537.36 (KHTML, like Gecko) Chrome/131.0.0.0 Safari/537.36" version="25.0.3" pages="5">
  <diagram name="Create New Reservation" id="lzaD5SWsvzBRIq4rrOqY">
    <mxGraphModel dx="1591" dy="758" grid="1" gridSize="10" guides="1" tooltips="1" connect="1" arrows="1" fold="1" page="1" pageScale="1" pageWidth="850" pageHeight="1100" math="0" shadow="0">
      <root>
        <mxCell id="0" />
        <mxCell id="1" parent="0" />
        <mxCell id="Q_IgLKew71fu8sznAmu3-3" value="" style="edgeStyle=orthogonalEdgeStyle;rounded=0;orthogonalLoop=1;jettySize=auto;html=1;" parent="1" source="Q_IgLKew71fu8sznAmu3-1" target="Q_IgLKew71fu8sznAmu3-2" edge="1">
          <mxGeometry relative="1" as="geometry" />
        </mxCell>
        <mxCell id="Q_IgLKew71fu8sznAmu3-1" value="start" style="ellipse;whiteSpace=wrap;html=1;" parent="1" vertex="1">
          <mxGeometry x="40" y="110" width="50" height="30" as="geometry" />
        </mxCell>
        <mxCell id="Q_IgLKew71fu8sznAmu3-5" value="" style="edgeStyle=orthogonalEdgeStyle;rounded=0;orthogonalLoop=1;jettySize=auto;html=1;" parent="1" source="Q_IgLKew71fu8sznAmu3-2" target="Q_IgLKew71fu8sznAmu3-4" edge="1">
          <mxGeometry relative="1" as="geometry" />
        </mxCell>
        <mxCell id="Q_IgLKew71fu8sznAmu3-2" value="Input Reservation Details" style="shape=parallelogram;perimeter=parallelogramPerimeter;whiteSpace=wrap;html=1;fixedSize=1;" parent="1" vertex="1">
          <mxGeometry x="135" y="95" width="125" height="60" as="geometry" />
        </mxCell>
        <mxCell id="Q_IgLKew71fu8sznAmu3-7" value="" style="edgeStyle=orthogonalEdgeStyle;rounded=0;orthogonalLoop=1;jettySize=auto;html=1;" parent="1" source="Q_IgLKew71fu8sznAmu3-4" target="Q_IgLKew71fu8sznAmu3-6" edge="1">
          <mxGeometry relative="1" as="geometry" />
        </mxCell>
        <mxCell id="Q_IgLKew71fu8sznAmu3-4" value="Insert details into reservation table" style="whiteSpace=wrap;html=1;" parent="1" vertex="1">
          <mxGeometry x="320" y="95" width="120" height="60" as="geometry" />
        </mxCell>
        <mxCell id="Q_IgLKew71fu8sznAmu3-9" value="" style="edgeStyle=orthogonalEdgeStyle;rounded=0;orthogonalLoop=1;jettySize=auto;html=1;" parent="1" source="Q_IgLKew71fu8sznAmu3-6" edge="1">
          <mxGeometry relative="1" as="geometry">
            <mxPoint x="630" y="125" as="targetPoint" />
          </mxGeometry>
        </mxCell>
        <mxCell id="Q_IgLKew71fu8sznAmu3-6" value="Get contactChannel from Reservation details" style="whiteSpace=wrap;html=1;" parent="1" vertex="1">
          <mxGeometry x="480" y="95" width="120" height="60" as="geometry" />
        </mxCell>
        <mxCell id="Q_IgLKew71fu8sznAmu3-11" value="end" style="ellipse;whiteSpace=wrap;html=1;" parent="1" vertex="1">
          <mxGeometry x="1080" y="105" width="50" height="30" as="geometry" />
        </mxCell>
        <mxCell id="EkTzrjqG-e0depOlayYT-1" value="reservation db" style="shape=cylinder3;whiteSpace=wrap;html=1;boundedLbl=1;backgroundOutline=1;size=15;" vertex="1" parent="1">
          <mxGeometry x="340" y="200" width="60" height="80" as="geometry" />
        </mxCell>
        <mxCell id="EkTzrjqG-e0depOlayYT-6" value="" style="endArrow=none;dashed=1;html=1;rounded=0;entryX=0.451;entryY=0.978;entryDx=0;entryDy=0;entryPerimeter=0;" edge="1" parent="1" source="EkTzrjqG-e0depOlayYT-1" target="Q_IgLKew71fu8sznAmu3-4">
          <mxGeometry width="50" height="50" relative="1" as="geometry">
            <mxPoint x="500" y="280" as="sourcePoint" />
            <mxPoint x="550" y="230" as="targetPoint" />
          </mxGeometry>
        </mxCell>
        <UserObject label="&lt;p class=&quot;MsoNormal&quot; style=&quot;margin-bottom: 0cm; line-height: normal;&quot;&gt;{&lt;/p&gt;&lt;p class=&quot;MsoNormal&quot; style=&quot;margin-bottom: 0cm; line-height: normal;&quot;&gt;&amp;nbsp; &amp;nbsp; &quot;customerName&quot;: &quot;Kim&quot;,&lt;/p&gt;&lt;p class=&quot;MsoNormal&quot; style=&quot;margin-bottom: 0cm; line-height: normal;&quot;&gt;&amp;nbsp; &amp;nbsp; &quot;phoneNumber&quot;: &quot;9170239821&quot;,&lt;/p&gt;&lt;p class=&quot;MsoNormal&quot; style=&quot;margin-bottom: 0cm; line-height: normal;&quot;&gt;&amp;nbsp; &amp;nbsp; &quot;email&quot;: &quot;kim@email.com&quot;,&lt;/p&gt;&lt;p class=&quot;MsoNormal&quot; style=&quot;margin-bottom: 0cm; line-height: normal;&quot;&gt;&amp;nbsp; &amp;nbsp; &quot;reservationDatetime&quot;: &quot;2024-12-19T06:11:30&quot;,&lt;/p&gt;&lt;p class=&quot;MsoNormal&quot; style=&quot;margin-bottom: 0cm; line-height: normal;&quot;&gt;&amp;nbsp; &amp;nbsp; &quot;guestNumber&quot;: 3,&lt;/p&gt;&lt;p class=&quot;MsoNormal&quot; style=&quot;margin-bottom: 0cm; line-height: normal;&quot;&gt;&amp;nbsp; &amp;nbsp; &quot;contactChannel&quot;: &quot;sms&quot;&lt;/p&gt;&lt;p class=&quot;MsoNormal&quot; style=&quot;margin-bottom: 0cm; line-height: normal;&quot;&gt;}&lt;/p&gt;" id="EkTzrjqG-e0depOlayYT-7">
          <mxCell style="text;whiteSpace=wrap;html=1;align=left;fillColor=#FFF2CC;" vertex="1" parent="1">
            <mxGeometry x="50" y="170" width="267.5" height="225" as="geometry" />
          </mxCell>
        </UserObject>
        <mxCell id="EkTzrjqG-e0depOlayYT-8" value="&lt;span style=&quot;line-height: 115%;&quot;&gt;&lt;font style=&quot;font-size: 12px;&quot;&gt;POST v1/reservation&lt;/font&gt;&lt;/span&gt;" style="text;whiteSpace=wrap;html=1;fillColor=#9999FF;" vertex="1" parent="1">
          <mxGeometry x="15" y="70" width="120" height="30" as="geometry" />
        </mxCell>
        <mxCell id="EkTzrjqG-e0depOlayYT-15" value="" style="edgeStyle=orthogonalEdgeStyle;rounded=0;orthogonalLoop=1;jettySize=auto;html=1;" edge="1" parent="1" source="EkTzrjqG-e0depOlayYT-9" target="Q_IgLKew71fu8sznAmu3-11">
          <mxGeometry relative="1" as="geometry" />
        </mxCell>
        <mxCell id="EkTzrjqG-e0depOlayYT-9" value="Output Response" style="shape=parallelogram;perimeter=parallelogramPerimeter;whiteSpace=wrap;html=1;fixedSize=1;" vertex="1" parent="1">
          <mxGeometry x="930" y="90" width="120" height="60" as="geometry" />
        </mxCell>
        <mxCell id="EkTzrjqG-e0depOlayYT-20" value="" style="edgeStyle=orthogonalEdgeStyle;rounded=0;orthogonalLoop=1;jettySize=auto;html=1;" edge="1" parent="1" source="EkTzrjqG-e0depOlayYT-12" target="EkTzrjqG-e0depOlayYT-18">
          <mxGeometry relative="1" as="geometry" />
        </mxCell>
        <mxCell id="EkTzrjqG-e0depOlayYT-12" value="Send Notification to contactChannel" style="shape=process;whiteSpace=wrap;html=1;backgroundOutline=1;" vertex="1" parent="1">
          <mxGeometry x="630" y="90" width="120" height="60" as="geometry" />
        </mxCell>
        <UserObject label="&lt;p style=&quot;margin-bottom:0cm;line-height:normal&quot; class=&quot;MsoNormal&quot;&gt;{&lt;/p&gt;&lt;p style=&quot;margin-bottom:0cm;line-height:normal&quot; class=&quot;MsoNormal&quot;&gt;&amp;nbsp; &amp;nbsp; &quot;message&quot;: &quot;Successfully Inserted.&quot;,&lt;/p&gt;&lt;p style=&quot;margin-bottom:0cm;line-height:normal&quot; class=&quot;MsoNormal&quot;&gt;&amp;nbsp; &amp;nbsp; &quot;reservationId&quot;: &quot;RESV2412190337331233&quot;&lt;/p&gt;&lt;p style=&quot;margin-bottom:0cm;line-height:normal&quot; class=&quot;MsoNormal&quot;&gt;}&lt;/p&gt;" id="EkTzrjqG-e0depOlayYT-16">
          <mxCell style="text;whiteSpace=wrap;html=1;align=left;fillColor=#FFF2CC;" vertex="1" parent="1">
            <mxGeometry x="900" y="155" width="310" height="125" as="geometry" />
          </mxCell>
        </UserObject>
        <mxCell id="EkTzrjqG-e0depOlayYT-24" value="" style="edgeStyle=orthogonalEdgeStyle;rounded=0;orthogonalLoop=1;jettySize=auto;html=1;" edge="1" parent="1" source="EkTzrjqG-e0depOlayYT-18" target="EkTzrjqG-e0depOlayYT-22">
          <mxGeometry relative="1" as="geometry" />
        </mxCell>
        <mxCell id="EkTzrjqG-e0depOlayYT-25" value="" style="edgeStyle=orthogonalEdgeStyle;rounded=0;orthogonalLoop=1;jettySize=auto;html=1;" edge="1" parent="1" source="EkTzrjqG-e0depOlayYT-18" target="EkTzrjqG-e0depOlayYT-23">
          <mxGeometry relative="1" as="geometry" />
        </mxCell>
        <mxCell id="EkTzrjqG-e0depOlayYT-18" value="" style="points=[[0.25,0.25,0],[0.5,0,0],[0.75,0.25,0],[1,0.5,0],[0.75,0.75,0],[0.5,1,0],[0.25,0.75,0],[0,0.5,0]];shape=mxgraph.bpmn.gateway2;html=1;verticalLabelPosition=bottom;labelBackgroundColor=#ffffff;verticalAlign=top;align=center;perimeter=rhombusPerimeter;outlineConnect=0;outline=none;symbol=none;gwType=exclusive;" vertex="1" parent="1">
          <mxGeometry x="790" y="95" width="50" height="50" as="geometry" />
        </mxCell>
        <mxCell id="EkTzrjqG-e0depOlayYT-22" value="" style="shape=image;html=1;verticalAlign=top;verticalLabelPosition=bottom;labelBackgroundColor=#ffffff;imageAspect=0;aspect=fixed;image=https://cdn1.iconfinder.com/data/icons/communication-icons-10/750/Untitled-1-07-128.png" vertex="1" parent="1">
          <mxGeometry x="790" y="20" width="50" height="50" as="geometry" />
        </mxCell>
        <mxCell id="EkTzrjqG-e0depOlayYT-23" value="Email" style="sketch=0;outlineConnect=0;fontColor=#232F3E;gradientColor=none;strokeColor=#232F3E;fillColor=#ffffff;dashed=0;verticalLabelPosition=bottom;verticalAlign=top;align=center;html=1;fontSize=12;fontStyle=0;aspect=fixed;shape=mxgraph.aws4.resourceIcon;resIcon=mxgraph.aws4.email;" vertex="1" parent="1">
          <mxGeometry x="785" y="170" width="60" height="60" as="geometry" />
        </mxCell>
        <mxCell id="EkTzrjqG-e0depOlayYT-27" value="" style="endArrow=none;html=1;rounded=0;exitX=1;exitY=0.5;exitDx=0;exitDy=0;" edge="1" parent="1" source="EkTzrjqG-e0depOlayYT-22">
          <mxGeometry width="50" height="50" relative="1" as="geometry">
            <mxPoint x="550" y="210" as="sourcePoint" />
            <mxPoint x="880" y="120" as="targetPoint" />
            <Array as="points">
              <mxPoint x="880" y="45" />
            </Array>
          </mxGeometry>
        </mxCell>
        <mxCell id="EkTzrjqG-e0depOlayYT-28" value="" style="endArrow=classic;html=1;rounded=0;" edge="1" parent="1" target="EkTzrjqG-e0depOlayYT-9">
          <mxGeometry width="50" height="50" relative="1" as="geometry">
            <mxPoint x="880" y="120" as="sourcePoint" />
            <mxPoint x="600" y="160" as="targetPoint" />
          </mxGeometry>
        </mxCell>
        <mxCell id="EkTzrjqG-e0depOlayYT-32" value="" style="endArrow=none;html=1;rounded=0;" edge="1" parent="1" source="EkTzrjqG-e0depOlayYT-23">
          <mxGeometry width="50" height="50" relative="1" as="geometry">
            <mxPoint x="550" y="210" as="sourcePoint" />
            <mxPoint x="880" y="110" as="targetPoint" />
            <Array as="points">
              <mxPoint x="880" y="200" />
            </Array>
          </mxGeometry>
        </mxCell>
        <mxCell id="EkTzrjqG-e0depOlayYT-33" value="&lt;div style=&quot;background-color:#ffffff;padding:0px 0px 0px 2px;&quot;&gt;&lt;div style=&quot;color:#000000;background-color:#ffffff;font-family:&amp;quot;Courier New&amp;quot;;font-size:10pt;white-space:pre;&quot;&gt;&lt;p style=&quot;background-color:#e8f2fe;margin:0;&quot;&gt;&lt;span style=&quot;color:#2a00ff;&quot;&gt;Your reservation is &lt;/span&gt;&lt;/p&gt;&lt;p style=&quot;background-color:#e8f2fe;margin:0;&quot;&gt;&lt;span style=&quot;color:#2a00ff;&quot;&gt;confirmed with ID: %s&lt;/span&gt;&lt;/p&gt;&lt;/div&gt;&lt;/div&gt;" style="text;whiteSpace=wrap;html=1;" vertex="1" parent="1">
          <mxGeometry x="600" y="40" width="180" height="40" as="geometry" />
        </mxCell>
        <mxCell id="EkTzrjqG-e0depOlayYT-34" value="&lt;p class=&quot;MsoNormal&quot;&gt;&lt;b&gt;&lt;font style=&quot;font-size: 24px;&quot;&gt;Create New Reservation&lt;/font&gt;&lt;/b&gt;&lt;/p&gt;" style="text;whiteSpace=wrap;html=1;" vertex="1" parent="1">
          <mxGeometry x="560" y="410" width="300" height="60" as="geometry" />
        </mxCell>
      </root>
    </mxGraphModel>
  </diagram>
  <diagram name="Cancel Reservation" id="HZLXzYI0th2AJ-q_SkCD">
    <mxGraphModel dx="2441" dy="758" grid="1" gridSize="10" guides="1" tooltips="1" connect="1" arrows="1" fold="1" page="1" pageScale="1" pageWidth="850" pageHeight="1100" math="0" shadow="0">
      <root>
        <mxCell id="WDMmI8Xw0cCuT8PcI9Qu-0" />
        <mxCell id="WDMmI8Xw0cCuT8PcI9Qu-1" parent="WDMmI8Xw0cCuT8PcI9Qu-0" />
        <mxCell id="WDMmI8Xw0cCuT8PcI9Qu-2" value="" style="edgeStyle=orthogonalEdgeStyle;rounded=0;orthogonalLoop=1;jettySize=auto;html=1;" edge="1" parent="WDMmI8Xw0cCuT8PcI9Qu-1" source="WDMmI8Xw0cCuT8PcI9Qu-3" target="WDMmI8Xw0cCuT8PcI9Qu-5">
          <mxGeometry relative="1" as="geometry" />
        </mxCell>
        <mxCell id="WDMmI8Xw0cCuT8PcI9Qu-3" value="start" style="ellipse;whiteSpace=wrap;html=1;" vertex="1" parent="WDMmI8Xw0cCuT8PcI9Qu-1">
          <mxGeometry x="40" y="110" width="50" height="30" as="geometry" />
        </mxCell>
        <mxCell id="WDMmI8Xw0cCuT8PcI9Qu-4" value="" style="edgeStyle=orthogonalEdgeStyle;rounded=0;orthogonalLoop=1;jettySize=auto;html=1;" edge="1" parent="WDMmI8Xw0cCuT8PcI9Qu-1" source="WDMmI8Xw0cCuT8PcI9Qu-5" target="WDMmI8Xw0cCuT8PcI9Qu-7">
          <mxGeometry relative="1" as="geometry" />
        </mxCell>
        <mxCell id="WDMmI8Xw0cCuT8PcI9Qu-5" value="Input&amp;nbsp;&lt;span style=&quot;text-align: left;&quot;&gt;reservationId&lt;/span&gt;" style="shape=parallelogram;perimeter=parallelogramPerimeter;whiteSpace=wrap;html=1;fixedSize=1;" vertex="1" parent="WDMmI8Xw0cCuT8PcI9Qu-1">
          <mxGeometry x="135" y="95" width="125" height="60" as="geometry" />
        </mxCell>
        <mxCell id="WDMmI8Xw0cCuT8PcI9Qu-6" value="" style="edgeStyle=orthogonalEdgeStyle;rounded=0;orthogonalLoop=1;jettySize=auto;html=1;" edge="1" parent="WDMmI8Xw0cCuT8PcI9Qu-1" source="WDMmI8Xw0cCuT8PcI9Qu-7" target="WDMmI8Xw0cCuT8PcI9Qu-9">
          <mxGeometry relative="1" as="geometry" />
        </mxCell>
        <mxCell id="WDMmI8Xw0cCuT8PcI9Qu-7" value="Get reservation from db where id =&amp;nbsp;&lt;span style=&quot;text-align: left;&quot;&gt;reservationId&lt;/span&gt;" style="whiteSpace=wrap;html=1;" vertex="1" parent="WDMmI8Xw0cCuT8PcI9Qu-1">
          <mxGeometry x="320" y="95" width="120" height="60" as="geometry" />
        </mxCell>
        <mxCell id="WDMmI8Xw0cCuT8PcI9Qu-8" value="" style="edgeStyle=orthogonalEdgeStyle;rounded=0;orthogonalLoop=1;jettySize=auto;html=1;" edge="1" parent="WDMmI8Xw0cCuT8PcI9Qu-1" source="WDMmI8Xw0cCuT8PcI9Qu-9">
          <mxGeometry relative="1" as="geometry">
            <mxPoint x="630" y="125" as="targetPoint" />
          </mxGeometry>
        </mxCell>
        <mxCell id="WDMmI8Xw0cCuT8PcI9Qu-9" value="update status to false" style="whiteSpace=wrap;html=1;" vertex="1" parent="WDMmI8Xw0cCuT8PcI9Qu-1">
          <mxGeometry x="480" y="95" width="120" height="60" as="geometry" />
        </mxCell>
        <mxCell id="WDMmI8Xw0cCuT8PcI9Qu-10" value="end" style="ellipse;whiteSpace=wrap;html=1;" vertex="1" parent="WDMmI8Xw0cCuT8PcI9Qu-1">
          <mxGeometry x="1080" y="105" width="50" height="30" as="geometry" />
        </mxCell>
        <mxCell id="WDMmI8Xw0cCuT8PcI9Qu-11" value="reservation db" style="shape=cylinder3;whiteSpace=wrap;html=1;boundedLbl=1;backgroundOutline=1;size=15;" vertex="1" parent="WDMmI8Xw0cCuT8PcI9Qu-1">
          <mxGeometry x="340" y="200" width="60" height="80" as="geometry" />
        </mxCell>
        <mxCell id="WDMmI8Xw0cCuT8PcI9Qu-12" value="" style="endArrow=none;dashed=1;html=1;rounded=0;entryX=0.451;entryY=0.978;entryDx=0;entryDy=0;entryPerimeter=0;" edge="1" parent="WDMmI8Xw0cCuT8PcI9Qu-1" source="WDMmI8Xw0cCuT8PcI9Qu-11" target="WDMmI8Xw0cCuT8PcI9Qu-7">
          <mxGeometry width="50" height="50" relative="1" as="geometry">
            <mxPoint x="500" y="280" as="sourcePoint" />
            <mxPoint x="550" y="230" as="targetPoint" />
          </mxGeometry>
        </mxCell>
        <mxCell id="WDMmI8Xw0cCuT8PcI9Qu-14" value="&lt;span style=&quot;line-height: 115%;&quot;&gt;&lt;font style=&quot;font-size: 12px;&quot;&gt;PUT http://v1/reservation/cancel?reservationId={{reservationId}}&lt;/font&gt;&lt;/span&gt;" style="text;whiteSpace=wrap;html=1;fillColor=#9999FF;" vertex="1" parent="WDMmI8Xw0cCuT8PcI9Qu-1">
          <mxGeometry x="-140" y="50" width="380" height="30" as="geometry" />
        </mxCell>
        <mxCell id="WDMmI8Xw0cCuT8PcI9Qu-15" value="" style="edgeStyle=orthogonalEdgeStyle;rounded=0;orthogonalLoop=1;jettySize=auto;html=1;" edge="1" parent="WDMmI8Xw0cCuT8PcI9Qu-1" source="WDMmI8Xw0cCuT8PcI9Qu-16" target="WDMmI8Xw0cCuT8PcI9Qu-10">
          <mxGeometry relative="1" as="geometry" />
        </mxCell>
        <mxCell id="WDMmI8Xw0cCuT8PcI9Qu-16" value="Output Response" style="shape=parallelogram;perimeter=parallelogramPerimeter;whiteSpace=wrap;html=1;fixedSize=1;" vertex="1" parent="WDMmI8Xw0cCuT8PcI9Qu-1">
          <mxGeometry x="930" y="90" width="120" height="60" as="geometry" />
        </mxCell>
        <mxCell id="WDMmI8Xw0cCuT8PcI9Qu-17" value="" style="edgeStyle=orthogonalEdgeStyle;rounded=0;orthogonalLoop=1;jettySize=auto;html=1;" edge="1" parent="WDMmI8Xw0cCuT8PcI9Qu-1" source="WDMmI8Xw0cCuT8PcI9Qu-18" target="WDMmI8Xw0cCuT8PcI9Qu-22">
          <mxGeometry relative="1" as="geometry" />
        </mxCell>
        <mxCell id="WDMmI8Xw0cCuT8PcI9Qu-18" value="Send Notification to contactChannel" style="shape=process;whiteSpace=wrap;html=1;backgroundOutline=1;" vertex="1" parent="WDMmI8Xw0cCuT8PcI9Qu-1">
          <mxGeometry x="630" y="90" width="120" height="60" as="geometry" />
        </mxCell>
        <UserObject label="&lt;p style=&quot;margin-bottom:0cm;line-height:normal&quot; class=&quot;MsoNormal&quot;&gt;{&lt;/p&gt;&lt;p style=&quot;margin-bottom:0cm;line-height:normal&quot; class=&quot;MsoNormal&quot;&gt;&amp;nbsp; &amp;nbsp; &quot;message&quot;: &quot;Successfully Cancelled.&quot;,&lt;/p&gt;&lt;p style=&quot;margin-bottom:0cm;line-height:normal&quot; class=&quot;MsoNormal&quot;&gt;&amp;nbsp; &amp;nbsp; &quot;reservationId&quot;: &quot;RESV2412190337331233&quot;&lt;/p&gt;&lt;p style=&quot;margin-bottom:0cm;line-height:normal&quot; class=&quot;MsoNormal&quot;&gt;}&lt;/p&gt;" id="WDMmI8Xw0cCuT8PcI9Qu-19">
          <mxCell style="text;whiteSpace=wrap;html=1;align=left;fillColor=#FFF2CC;" vertex="1" parent="WDMmI8Xw0cCuT8PcI9Qu-1">
            <mxGeometry x="900" y="155" width="310" height="125" as="geometry" />
          </mxCell>
        </UserObject>
        <mxCell id="WDMmI8Xw0cCuT8PcI9Qu-20" value="" style="edgeStyle=orthogonalEdgeStyle;rounded=0;orthogonalLoop=1;jettySize=auto;html=1;" edge="1" parent="WDMmI8Xw0cCuT8PcI9Qu-1" source="WDMmI8Xw0cCuT8PcI9Qu-22" target="WDMmI8Xw0cCuT8PcI9Qu-23">
          <mxGeometry relative="1" as="geometry" />
        </mxCell>
        <mxCell id="WDMmI8Xw0cCuT8PcI9Qu-21" value="" style="edgeStyle=orthogonalEdgeStyle;rounded=0;orthogonalLoop=1;jettySize=auto;html=1;" edge="1" parent="WDMmI8Xw0cCuT8PcI9Qu-1" source="WDMmI8Xw0cCuT8PcI9Qu-22" target="WDMmI8Xw0cCuT8PcI9Qu-24">
          <mxGeometry relative="1" as="geometry" />
        </mxCell>
        <mxCell id="WDMmI8Xw0cCuT8PcI9Qu-22" value="" style="points=[[0.25,0.25,0],[0.5,0,0],[0.75,0.25,0],[1,0.5,0],[0.75,0.75,0],[0.5,1,0],[0.25,0.75,0],[0,0.5,0]];shape=mxgraph.bpmn.gateway2;html=1;verticalLabelPosition=bottom;labelBackgroundColor=#ffffff;verticalAlign=top;align=center;perimeter=rhombusPerimeter;outlineConnect=0;outline=none;symbol=none;gwType=exclusive;" vertex="1" parent="WDMmI8Xw0cCuT8PcI9Qu-1">
          <mxGeometry x="790" y="95" width="50" height="50" as="geometry" />
        </mxCell>
        <mxCell id="WDMmI8Xw0cCuT8PcI9Qu-23" value="" style="shape=image;html=1;verticalAlign=top;verticalLabelPosition=bottom;labelBackgroundColor=#ffffff;imageAspect=0;aspect=fixed;image=https://cdn1.iconfinder.com/data/icons/communication-icons-10/750/Untitled-1-07-128.png" vertex="1" parent="WDMmI8Xw0cCuT8PcI9Qu-1">
          <mxGeometry x="790" y="20" width="50" height="50" as="geometry" />
        </mxCell>
        <mxCell id="WDMmI8Xw0cCuT8PcI9Qu-24" value="Email" style="sketch=0;outlineConnect=0;fontColor=#232F3E;gradientColor=none;strokeColor=#232F3E;fillColor=#ffffff;dashed=0;verticalLabelPosition=bottom;verticalAlign=top;align=center;html=1;fontSize=12;fontStyle=0;aspect=fixed;shape=mxgraph.aws4.resourceIcon;resIcon=mxgraph.aws4.email;" vertex="1" parent="WDMmI8Xw0cCuT8PcI9Qu-1">
          <mxGeometry x="785" y="170" width="60" height="60" as="geometry" />
        </mxCell>
        <mxCell id="WDMmI8Xw0cCuT8PcI9Qu-25" value="" style="endArrow=none;html=1;rounded=0;exitX=1;exitY=0.5;exitDx=0;exitDy=0;" edge="1" parent="WDMmI8Xw0cCuT8PcI9Qu-1" source="WDMmI8Xw0cCuT8PcI9Qu-23">
          <mxGeometry width="50" height="50" relative="1" as="geometry">
            <mxPoint x="550" y="210" as="sourcePoint" />
            <mxPoint x="880" y="120" as="targetPoint" />
            <Array as="points">
              <mxPoint x="880" y="45" />
            </Array>
          </mxGeometry>
        </mxCell>
        <mxCell id="WDMmI8Xw0cCuT8PcI9Qu-26" value="" style="endArrow=classic;html=1;rounded=0;" edge="1" parent="WDMmI8Xw0cCuT8PcI9Qu-1" target="WDMmI8Xw0cCuT8PcI9Qu-16">
          <mxGeometry width="50" height="50" relative="1" as="geometry">
            <mxPoint x="880" y="120" as="sourcePoint" />
            <mxPoint x="600" y="160" as="targetPoint" />
          </mxGeometry>
        </mxCell>
        <mxCell id="WDMmI8Xw0cCuT8PcI9Qu-27" value="" style="endArrow=none;html=1;rounded=0;" edge="1" parent="WDMmI8Xw0cCuT8PcI9Qu-1" source="WDMmI8Xw0cCuT8PcI9Qu-24">
          <mxGeometry width="50" height="50" relative="1" as="geometry">
            <mxPoint x="550" y="210" as="sourcePoint" />
            <mxPoint x="880" y="110" as="targetPoint" />
            <Array as="points">
              <mxPoint x="880" y="200" />
            </Array>
          </mxGeometry>
        </mxCell>
        <mxCell id="WDMmI8Xw0cCuT8PcI9Qu-28" value="&lt;div style=&quot;background-color:#ffffff;padding:0px 0px 0px 2px;&quot;&gt;&lt;div style=&quot;color:#000000;background-color:#ffffff;font-family:&amp;quot;Courier New&amp;quot;;font-size:10pt;white-space:pre;&quot;&gt;&lt;div style=&quot;padding: 0px 0px 0px 2px;&quot;&gt;&lt;div style=&quot;font-size: 10pt;&quot;&gt;&lt;p style=&quot;background-color:#e8f2fe;margin:0;&quot;&gt;&lt;span style=&quot;color:#2a00ff;&quot;&gt;Your reservation with &lt;/span&gt;&lt;span style=&quot;color: rgb(42, 0, 255); font-size: 10pt;&quot;&gt;ID %s &lt;/span&gt;&lt;/p&gt;&lt;p style=&quot;background-color:#e8f2fe;margin:0;&quot;&gt;&lt;span style=&quot;color: rgb(42, 0, 255); font-size: 10pt;&quot;&gt;was succesfully cancelled&lt;/span&gt;&lt;/p&gt;&lt;/div&gt;&lt;/div&gt;&lt;/div&gt;&lt;/div&gt;" style="text;whiteSpace=wrap;html=1;" vertex="1" parent="WDMmI8Xw0cCuT8PcI9Qu-1">
          <mxGeometry x="530" y="40" width="250" height="40" as="geometry" />
        </mxCell>
        <mxCell id="WDMmI8Xw0cCuT8PcI9Qu-29" value="&lt;p class=&quot;MsoNormal&quot;&gt;&lt;b&gt;&lt;font style=&quot;font-size: 24px;&quot;&gt;Cancel Reservation&lt;/font&gt;&lt;/b&gt;&lt;/p&gt;" style="text;whiteSpace=wrap;html=1;" vertex="1" parent="WDMmI8Xw0cCuT8PcI9Qu-1">
          <mxGeometry x="505" y="330" width="300" height="60" as="geometry" />
        </mxCell>
      </root>
    </mxGraphModel>
  </diagram>
  <diagram name="Update Reservation" id="59lLZtm0Jb816DStKTqr">
    <mxGraphModel dx="2327" dy="704" grid="1" gridSize="10" guides="1" tooltips="1" connect="1" arrows="1" fold="1" page="1" pageScale="1" pageWidth="850" pageHeight="1100" math="0" shadow="0">
      <root>
        <mxCell id="SyQc9nazAZ76KbtpI3BR-0" />
        <mxCell id="SyQc9nazAZ76KbtpI3BR-1" parent="SyQc9nazAZ76KbtpI3BR-0" />
        <mxCell id="SyQc9nazAZ76KbtpI3BR-2" value="" style="edgeStyle=orthogonalEdgeStyle;rounded=0;orthogonalLoop=1;jettySize=auto;html=1;" edge="1" parent="SyQc9nazAZ76KbtpI3BR-1" source="SyQc9nazAZ76KbtpI3BR-3" target="SyQc9nazAZ76KbtpI3BR-5">
          <mxGeometry relative="1" as="geometry" />
        </mxCell>
        <mxCell id="SyQc9nazAZ76KbtpI3BR-3" value="start" style="ellipse;whiteSpace=wrap;html=1;" vertex="1" parent="SyQc9nazAZ76KbtpI3BR-1">
          <mxGeometry x="40" y="110" width="50" height="30" as="geometry" />
        </mxCell>
        <mxCell id="SyQc9nazAZ76KbtpI3BR-4" value="" style="edgeStyle=orthogonalEdgeStyle;rounded=0;orthogonalLoop=1;jettySize=auto;html=1;" edge="1" parent="SyQc9nazAZ76KbtpI3BR-1" source="SyQc9nazAZ76KbtpI3BR-5" target="SyQc9nazAZ76KbtpI3BR-7">
          <mxGeometry relative="1" as="geometry" />
        </mxCell>
        <mxCell id="SyQc9nazAZ76KbtpI3BR-5" value="Input&amp;nbsp;&lt;span style=&quot;text-align: left;&quot;&gt;DateAndGuest Request&lt;/span&gt;" style="shape=parallelogram;perimeter=parallelogramPerimeter;whiteSpace=wrap;html=1;fixedSize=1;" vertex="1" parent="SyQc9nazAZ76KbtpI3BR-1">
          <mxGeometry x="135" y="95" width="125" height="60" as="geometry" />
        </mxCell>
        <mxCell id="SyQc9nazAZ76KbtpI3BR-6" value="" style="edgeStyle=orthogonalEdgeStyle;rounded=0;orthogonalLoop=1;jettySize=auto;html=1;" edge="1" parent="SyQc9nazAZ76KbtpI3BR-1" source="SyQc9nazAZ76KbtpI3BR-7">
          <mxGeometry relative="1" as="geometry">
            <mxPoint x="480" y="125" as="targetPoint" />
          </mxGeometry>
        </mxCell>
        <mxCell id="SyQc9nazAZ76KbtpI3BR-7" value="Update reservation datetime and guest number by reservationid" style="whiteSpace=wrap;html=1;" vertex="1" parent="SyQc9nazAZ76KbtpI3BR-1">
          <mxGeometry x="320" y="95" width="120" height="60" as="geometry" />
        </mxCell>
        <mxCell id="SyQc9nazAZ76KbtpI3BR-10" value="end" style="ellipse;whiteSpace=wrap;html=1;" vertex="1" parent="SyQc9nazAZ76KbtpI3BR-1">
          <mxGeometry x="930" y="105" width="50" height="30" as="geometry" />
        </mxCell>
        <mxCell id="SyQc9nazAZ76KbtpI3BR-11" value="reservation db" style="shape=cylinder3;whiteSpace=wrap;html=1;boundedLbl=1;backgroundOutline=1;size=15;" vertex="1" parent="SyQc9nazAZ76KbtpI3BR-1">
          <mxGeometry x="340" y="200" width="60" height="80" as="geometry" />
        </mxCell>
        <mxCell id="SyQc9nazAZ76KbtpI3BR-12" value="" style="endArrow=none;dashed=1;html=1;rounded=0;entryX=0.451;entryY=0.978;entryDx=0;entryDy=0;entryPerimeter=0;" edge="1" parent="SyQc9nazAZ76KbtpI3BR-1" source="SyQc9nazAZ76KbtpI3BR-11" target="SyQc9nazAZ76KbtpI3BR-7">
          <mxGeometry width="50" height="50" relative="1" as="geometry">
            <mxPoint x="500" y="280" as="sourcePoint" />
            <mxPoint x="550" y="230" as="targetPoint" />
          </mxGeometry>
        </mxCell>
        <mxCell id="SyQc9nazAZ76KbtpI3BR-13" value="&lt;span style=&quot;line-height: 115%;&quot;&gt;&lt;font style=&quot;font-size: 12px;&quot;&gt;PUT&amp;nbsp;&lt;/font&gt;&lt;/span&gt;&lt;span style=&quot;background-color: initial;&quot;&gt;v1/reservation/reservationDateAndGuest&lt;/span&gt;&lt;p class=&quot;MsoNormal&quot;&gt;&lt;/p&gt;" style="text;whiteSpace=wrap;html=1;fillColor=#9999FF;" vertex="1" parent="SyQc9nazAZ76KbtpI3BR-1">
          <mxGeometry x="-70" y="50" width="260" height="30" as="geometry" />
        </mxCell>
        <mxCell id="SyQc9nazAZ76KbtpI3BR-14" value="" style="edgeStyle=orthogonalEdgeStyle;rounded=0;orthogonalLoop=1;jettySize=auto;html=1;" edge="1" parent="SyQc9nazAZ76KbtpI3BR-1" source="SyQc9nazAZ76KbtpI3BR-15" target="SyQc9nazAZ76KbtpI3BR-10">
          <mxGeometry relative="1" as="geometry" />
        </mxCell>
        <mxCell id="SyQc9nazAZ76KbtpI3BR-15" value="Output Response" style="shape=parallelogram;perimeter=parallelogramPerimeter;whiteSpace=wrap;html=1;fixedSize=1;" vertex="1" parent="SyQc9nazAZ76KbtpI3BR-1">
          <mxGeometry x="780" y="90" width="120" height="60" as="geometry" />
        </mxCell>
        <mxCell id="SyQc9nazAZ76KbtpI3BR-16" value="" style="edgeStyle=orthogonalEdgeStyle;rounded=0;orthogonalLoop=1;jettySize=auto;html=1;" edge="1" parent="SyQc9nazAZ76KbtpI3BR-1" source="SyQc9nazAZ76KbtpI3BR-17" target="SyQc9nazAZ76KbtpI3BR-21">
          <mxGeometry relative="1" as="geometry" />
        </mxCell>
        <mxCell id="SyQc9nazAZ76KbtpI3BR-17" value="Send Notification to contactChannel" style="shape=process;whiteSpace=wrap;html=1;backgroundOutline=1;" vertex="1" parent="SyQc9nazAZ76KbtpI3BR-1">
          <mxGeometry x="480" y="90" width="120" height="60" as="geometry" />
        </mxCell>
        <UserObject label="&lt;p style=&quot;margin-bottom:0cm;line-height:normal&quot; class=&quot;MsoNormal&quot;&gt;{&lt;/p&gt;&lt;p style=&quot;margin-bottom:0cm;line-height:normal&quot; class=&quot;MsoNormal&quot;&gt;&amp;nbsp; &amp;nbsp; &quot;message&quot;: &quot;Successfully Updated.&quot;,&lt;/p&gt;&lt;p style=&quot;margin-bottom:0cm;line-height:normal&quot; class=&quot;MsoNormal&quot;&gt;&amp;nbsp; &amp;nbsp; &quot;reservationId&quot;: &quot;RESV2412190337331233&quot;&lt;/p&gt;&lt;p style=&quot;margin-bottom:0cm;line-height:normal&quot; class=&quot;MsoNormal&quot;&gt;}&lt;/p&gt;" id="SyQc9nazAZ76KbtpI3BR-18">
          <mxCell style="text;whiteSpace=wrap;html=1;align=left;fillColor=#FFF2CC;" vertex="1" parent="SyQc9nazAZ76KbtpI3BR-1">
            <mxGeometry x="900" y="155" width="310" height="125" as="geometry" />
          </mxCell>
        </UserObject>
        <mxCell id="SyQc9nazAZ76KbtpI3BR-19" value="" style="edgeStyle=orthogonalEdgeStyle;rounded=0;orthogonalLoop=1;jettySize=auto;html=1;" edge="1" parent="SyQc9nazAZ76KbtpI3BR-1" source="SyQc9nazAZ76KbtpI3BR-21" target="SyQc9nazAZ76KbtpI3BR-22">
          <mxGeometry relative="1" as="geometry" />
        </mxCell>
        <mxCell id="SyQc9nazAZ76KbtpI3BR-20" value="" style="edgeStyle=orthogonalEdgeStyle;rounded=0;orthogonalLoop=1;jettySize=auto;html=1;" edge="1" parent="SyQc9nazAZ76KbtpI3BR-1" source="SyQc9nazAZ76KbtpI3BR-21" target="SyQc9nazAZ76KbtpI3BR-23">
          <mxGeometry relative="1" as="geometry" />
        </mxCell>
        <mxCell id="SyQc9nazAZ76KbtpI3BR-21" value="" style="points=[[0.25,0.25,0],[0.5,0,0],[0.75,0.25,0],[1,0.5,0],[0.75,0.75,0],[0.5,1,0],[0.25,0.75,0],[0,0.5,0]];shape=mxgraph.bpmn.gateway2;html=1;verticalLabelPosition=bottom;labelBackgroundColor=#ffffff;verticalAlign=top;align=center;perimeter=rhombusPerimeter;outlineConnect=0;outline=none;symbol=none;gwType=exclusive;" vertex="1" parent="SyQc9nazAZ76KbtpI3BR-1">
          <mxGeometry x="640" y="95" width="50" height="50" as="geometry" />
        </mxCell>
        <mxCell id="SyQc9nazAZ76KbtpI3BR-22" value="" style="shape=image;html=1;verticalAlign=top;verticalLabelPosition=bottom;labelBackgroundColor=#ffffff;imageAspect=0;aspect=fixed;image=https://cdn1.iconfinder.com/data/icons/communication-icons-10/750/Untitled-1-07-128.png" vertex="1" parent="SyQc9nazAZ76KbtpI3BR-1">
          <mxGeometry x="640" y="20" width="50" height="50" as="geometry" />
        </mxCell>
        <mxCell id="SyQc9nazAZ76KbtpI3BR-23" value="Email" style="sketch=0;outlineConnect=0;fontColor=#232F3E;gradientColor=none;strokeColor=#232F3E;fillColor=#ffffff;dashed=0;verticalLabelPosition=bottom;verticalAlign=top;align=center;html=1;fontSize=12;fontStyle=0;aspect=fixed;shape=mxgraph.aws4.resourceIcon;resIcon=mxgraph.aws4.email;" vertex="1" parent="SyQc9nazAZ76KbtpI3BR-1">
          <mxGeometry x="635" y="170" width="60" height="60" as="geometry" />
        </mxCell>
        <mxCell id="SyQc9nazAZ76KbtpI3BR-24" value="" style="endArrow=none;html=1;rounded=0;exitX=1;exitY=0.5;exitDx=0;exitDy=0;" edge="1" parent="SyQc9nazAZ76KbtpI3BR-1" source="SyQc9nazAZ76KbtpI3BR-22">
          <mxGeometry width="50" height="50" relative="1" as="geometry">
            <mxPoint x="400" y="210" as="sourcePoint" />
            <mxPoint x="730" y="120" as="targetPoint" />
            <Array as="points">
              <mxPoint x="730" y="45" />
            </Array>
          </mxGeometry>
        </mxCell>
        <mxCell id="SyQc9nazAZ76KbtpI3BR-25" value="" style="endArrow=classic;html=1;rounded=0;" edge="1" parent="SyQc9nazAZ76KbtpI3BR-1" target="SyQc9nazAZ76KbtpI3BR-15">
          <mxGeometry width="50" height="50" relative="1" as="geometry">
            <mxPoint x="730" y="120" as="sourcePoint" />
            <mxPoint x="450" y="160" as="targetPoint" />
          </mxGeometry>
        </mxCell>
        <mxCell id="SyQc9nazAZ76KbtpI3BR-26" value="" style="endArrow=none;html=1;rounded=0;" edge="1" parent="SyQc9nazAZ76KbtpI3BR-1" source="SyQc9nazAZ76KbtpI3BR-23">
          <mxGeometry width="50" height="50" relative="1" as="geometry">
            <mxPoint x="400" y="210" as="sourcePoint" />
            <mxPoint x="730" y="110" as="targetPoint" />
            <Array as="points">
              <mxPoint x="730" y="200" />
            </Array>
          </mxGeometry>
        </mxCell>
        <mxCell id="SyQc9nazAZ76KbtpI3BR-27" value="&lt;div style=&quot;background-color:#ffffff;padding:0px 0px 0px 2px;&quot;&gt;&lt;div style=&quot;color:#000000;background-color:#ffffff;font-family:&amp;quot;Courier New&amp;quot;;font-size:10pt;white-space:pre;&quot;&gt;&lt;div style=&quot;padding: 0px 0px 0px 2px;&quot;&gt;&lt;div style=&quot;font-size: 10pt;&quot;&gt;&lt;p style=&quot;background-color:#e8f2fe;margin:0;&quot;&gt;&lt;span style=&quot;color:#2a00ff;&quot;&gt;Your reservation with &lt;/span&gt;&lt;span style=&quot;color: rgb(42, 0, 255); font-size: 10pt;&quot;&gt;ID %s &lt;/span&gt;&lt;/p&gt;&lt;p style=&quot;background-color:#e8f2fe;margin:0;&quot;&gt;&lt;span style=&quot;color: rgb(42, 0, 255); font-size: 10pt;&quot;&gt;was succesfully update.&lt;/span&gt;&lt;/p&gt;&lt;/div&gt;&lt;/div&gt;&lt;/div&gt;&lt;/div&gt;" style="text;whiteSpace=wrap;html=1;" vertex="1" parent="SyQc9nazAZ76KbtpI3BR-1">
          <mxGeometry x="380" y="40" width="250" height="40" as="geometry" />
        </mxCell>
        <mxCell id="SyQc9nazAZ76KbtpI3BR-28" value="&lt;p class=&quot;MsoNormal&quot;&gt;&lt;b&gt;&lt;font style=&quot;font-size: 24px;&quot;&gt;Update Reservation&lt;/font&gt;&lt;/b&gt;&lt;/p&gt;" style="text;whiteSpace=wrap;html=1;" vertex="1" parent="SyQc9nazAZ76KbtpI3BR-1">
          <mxGeometry x="300" y="370" width="300" height="60" as="geometry" />
        </mxCell>
        <UserObject label="&lt;p style=&quot;margin-bottom:0cm;line-height:normal&quot; class=&quot;MsoNormal&quot;&gt;{&lt;/p&gt;&lt;p style=&quot;margin-bottom:0cm;line-height:normal&quot; class=&quot;MsoNormal&quot;&gt;&amp;nbsp; &amp;nbsp; &quot;reservationId&quot;: &quot;RESV2412190337331233&quot;,&lt;/p&gt;&lt;p style=&quot;margin-bottom:0cm;line-height:normal&quot; class=&quot;MsoNormal&quot;&gt;&amp;nbsp; &amp;nbsp; &quot;newReservationDate &quot;: &quot;2024-12-29T05:13:10&quot;,&lt;/p&gt;&lt;p style=&quot;margin-bottom:0cm;line-height:normal&quot; class=&quot;MsoNormal&quot;&gt;&amp;nbsp; &amp;nbsp; &quot;newGuestNumber&quot;: 4&lt;/p&gt;&lt;p style=&quot;margin-bottom:0cm;line-height:normal&quot; class=&quot;MsoNormal&quot;&gt;}&lt;/p&gt;" id="fThLfYTe5SUfWG6lDXxZ-1">
          <mxCell style="text;whiteSpace=wrap;html=1;align=left;fillColor=#FFF2CC;" vertex="1" parent="SyQc9nazAZ76KbtpI3BR-1">
            <mxGeometry x="-10" y="170" width="310" height="150" as="geometry" />
          </mxCell>
        </UserObject>
      </root>
    </mxGraphModel>
  </diagram>
  <diagram name="Reminder" id="OrLfwrxHD2g20Jav53Yw">
    <mxGraphModel dx="1379" dy="1757" grid="1" gridSize="10" guides="1" tooltips="1" connect="1" arrows="1" fold="1" page="1" pageScale="1" pageWidth="850" pageHeight="1100" math="0" shadow="0">
      <root>
        <mxCell id="IjKodz7OfLeQ3iEzNedH-0" />
        <mxCell id="IjKodz7OfLeQ3iEzNedH-1" parent="IjKodz7OfLeQ3iEzNedH-0" />
        <mxCell id="IfKHGA8bLEkqaHu-RALr-2" value="" style="edgeStyle=orthogonalEdgeStyle;rounded=0;orthogonalLoop=1;jettySize=auto;html=1;" edge="1" parent="IjKodz7OfLeQ3iEzNedH-1" source="IjKodz7OfLeQ3iEzNedH-3" target="IfKHGA8bLEkqaHu-RALr-1">
          <mxGeometry relative="1" as="geometry" />
        </mxCell>
        <mxCell id="IjKodz7OfLeQ3iEzNedH-3" value="start" style="ellipse;whiteSpace=wrap;html=1;" vertex="1" parent="IjKodz7OfLeQ3iEzNedH-1">
          <mxGeometry x="40" y="110" width="50" height="30" as="geometry" />
        </mxCell>
        <mxCell id="IjKodz7OfLeQ3iEzNedH-4" value="" style="edgeStyle=orthogonalEdgeStyle;rounded=0;orthogonalLoop=1;jettySize=auto;html=1;" edge="1" parent="IjKodz7OfLeQ3iEzNedH-1" target="IjKodz7OfLeQ3iEzNedH-7">
          <mxGeometry relative="1" as="geometry">
            <mxPoint x="250" y="125" as="sourcePoint" />
          </mxGeometry>
        </mxCell>
        <mxCell id="p4hkO_ipRGp67zYmMY9C-1" value="" style="edgeStyle=orthogonalEdgeStyle;rounded=0;orthogonalLoop=1;jettySize=auto;html=1;" edge="1" parent="IjKodz7OfLeQ3iEzNedH-1" source="IjKodz7OfLeQ3iEzNedH-7" target="p4hkO_ipRGp67zYmMY9C-0">
          <mxGeometry relative="1" as="geometry" />
        </mxCell>
        <mxCell id="IjKodz7OfLeQ3iEzNedH-7" value="Get all reservation where reservation_date_time = localdatetime now and status = true" style="whiteSpace=wrap;html=1;" vertex="1" parent="IjKodz7OfLeQ3iEzNedH-1">
          <mxGeometry x="300" y="80" width="120" height="90" as="geometry" />
        </mxCell>
        <mxCell id="IjKodz7OfLeQ3iEzNedH-8" value="end" style="ellipse;whiteSpace=wrap;html=1;" vertex="1" parent="IjKodz7OfLeQ3iEzNedH-1">
          <mxGeometry x="1050" y="115" width="50" height="30" as="geometry" />
        </mxCell>
        <mxCell id="IjKodz7OfLeQ3iEzNedH-9" value="reservation db" style="shape=cylinder3;whiteSpace=wrap;html=1;boundedLbl=1;backgroundOutline=1;size=15;" vertex="1" parent="IjKodz7OfLeQ3iEzNedH-1">
          <mxGeometry x="320" y="200" width="60" height="80" as="geometry" />
        </mxCell>
        <mxCell id="IjKodz7OfLeQ3iEzNedH-10" value="" style="endArrow=none;dashed=1;html=1;rounded=0;entryX=0.451;entryY=0.978;entryDx=0;entryDy=0;entryPerimeter=0;" edge="1" parent="IjKodz7OfLeQ3iEzNedH-1" source="IjKodz7OfLeQ3iEzNedH-9" target="IjKodz7OfLeQ3iEzNedH-7">
          <mxGeometry width="50" height="50" relative="1" as="geometry">
            <mxPoint x="500" y="280" as="sourcePoint" />
            <mxPoint x="550" y="230" as="targetPoint" />
          </mxGeometry>
        </mxCell>
        <mxCell id="IjKodz7OfLeQ3iEzNedH-14" value="" style="edgeStyle=orthogonalEdgeStyle;rounded=0;orthogonalLoop=1;jettySize=auto;html=1;" edge="1" parent="IjKodz7OfLeQ3iEzNedH-1" target="IjKodz7OfLeQ3iEzNedH-19">
          <mxGeometry relative="1" as="geometry">
            <mxPoint x="730" y="130" as="sourcePoint" />
          </mxGeometry>
        </mxCell>
        <mxCell id="IjKodz7OfLeQ3iEzNedH-17" value="" style="edgeStyle=orthogonalEdgeStyle;rounded=0;orthogonalLoop=1;jettySize=auto;html=1;" edge="1" parent="IjKodz7OfLeQ3iEzNedH-1" source="IjKodz7OfLeQ3iEzNedH-19" target="IjKodz7OfLeQ3iEzNedH-20">
          <mxGeometry relative="1" as="geometry" />
        </mxCell>
        <mxCell id="IjKodz7OfLeQ3iEzNedH-18" value="" style="edgeStyle=orthogonalEdgeStyle;rounded=0;orthogonalLoop=1;jettySize=auto;html=1;" edge="1" parent="IjKodz7OfLeQ3iEzNedH-1" source="IjKodz7OfLeQ3iEzNedH-19" target="IjKodz7OfLeQ3iEzNedH-21">
          <mxGeometry relative="1" as="geometry" />
        </mxCell>
        <mxCell id="IjKodz7OfLeQ3iEzNedH-19" value="" style="points=[[0.25,0.25,0],[0.5,0,0],[0.75,0.25,0],[1,0.5,0],[0.75,0.75,0],[0.5,1,0],[0.25,0.75,0],[0,0.5,0]];shape=mxgraph.bpmn.gateway2;html=1;verticalLabelPosition=bottom;labelBackgroundColor=#ffffff;verticalAlign=top;align=center;perimeter=rhombusPerimeter;outlineConnect=0;outline=none;symbol=none;gwType=exclusive;" vertex="1" parent="IjKodz7OfLeQ3iEzNedH-1">
          <mxGeometry x="770" y="105" width="50" height="50" as="geometry" />
        </mxCell>
        <mxCell id="IjKodz7OfLeQ3iEzNedH-20" value="" style="shape=image;html=1;verticalAlign=top;verticalLabelPosition=bottom;labelBackgroundColor=#ffffff;imageAspect=0;aspect=fixed;image=https://cdn1.iconfinder.com/data/icons/communication-icons-10/750/Untitled-1-07-128.png" vertex="1" parent="IjKodz7OfLeQ3iEzNedH-1">
          <mxGeometry x="770" y="30" width="50" height="50" as="geometry" />
        </mxCell>
        <mxCell id="IjKodz7OfLeQ3iEzNedH-21" value="Email" style="sketch=0;outlineConnect=0;fontColor=#232F3E;gradientColor=none;strokeColor=#232F3E;fillColor=#ffffff;dashed=0;verticalLabelPosition=bottom;verticalAlign=top;align=center;html=1;fontSize=12;fontStyle=0;aspect=fixed;shape=mxgraph.aws4.resourceIcon;resIcon=mxgraph.aws4.email;" vertex="1" parent="IjKodz7OfLeQ3iEzNedH-1">
          <mxGeometry x="765" y="180" width="60" height="60" as="geometry" />
        </mxCell>
        <mxCell id="IjKodz7OfLeQ3iEzNedH-22" value="" style="endArrow=none;html=1;rounded=0;exitX=1;exitY=0.5;exitDx=0;exitDy=0;" edge="1" parent="IjKodz7OfLeQ3iEzNedH-1" source="IjKodz7OfLeQ3iEzNedH-20">
          <mxGeometry width="50" height="50" relative="1" as="geometry">
            <mxPoint x="530" y="220" as="sourcePoint" />
            <mxPoint x="860" y="130" as="targetPoint" />
            <Array as="points">
              <mxPoint x="860" y="55" />
            </Array>
          </mxGeometry>
        </mxCell>
        <mxCell id="IjKodz7OfLeQ3iEzNedH-23" value="" style="endArrow=classic;html=1;rounded=0;" edge="1" parent="IjKodz7OfLeQ3iEzNedH-1">
          <mxGeometry width="50" height="50" relative="1" as="geometry">
            <mxPoint x="860" y="130" as="sourcePoint" />
            <mxPoint x="920" y="130" as="targetPoint" />
          </mxGeometry>
        </mxCell>
        <mxCell id="IjKodz7OfLeQ3iEzNedH-24" value="" style="endArrow=none;html=1;rounded=0;" edge="1" parent="IjKodz7OfLeQ3iEzNedH-1" source="IjKodz7OfLeQ3iEzNedH-21">
          <mxGeometry width="50" height="50" relative="1" as="geometry">
            <mxPoint x="530" y="220" as="sourcePoint" />
            <mxPoint x="860" y="120" as="targetPoint" />
            <Array as="points">
              <mxPoint x="860" y="210" />
            </Array>
          </mxGeometry>
        </mxCell>
        <mxCell id="IjKodz7OfLeQ3iEzNedH-25" value="&lt;div style=&quot;background-color:#ffffff;padding:0px 0px 0px 2px;&quot;&gt;&lt;div style=&quot;color:#000000;background-color:#ffffff;font-family:&amp;quot;Courier New&amp;quot;;font-size:10pt;white-space:pre;&quot;&gt;&lt;div style=&quot;padding: 0px 0px 0px 2px;&quot;&gt;&lt;div style=&quot;font-size: 10pt;&quot;&gt;&lt;div style=&quot;padding: 0px 0px 0px 2px;&quot;&gt;&lt;div style=&quot;font-size: 10pt;&quot;&gt;&lt;p style=&quot;background-color:#e8f2fe;margin:0;&quot;&gt;&lt;span style=&quot;color:#2a00ff;&quot;&gt;You have a scheduled &lt;/span&gt;&lt;/p&gt;&lt;p style=&quot;background-color:#e8f2fe;margin:0;&quot;&gt;&lt;span style=&quot;color:#2a00ff;&quot;&gt;reservation on : %s&lt;/span&gt;&lt;/p&gt;&lt;/div&gt;&lt;/div&gt;&lt;/div&gt;&lt;/div&gt;&lt;/div&gt;&lt;/div&gt;" style="text;whiteSpace=wrap;html=1;" vertex="1" parent="IjKodz7OfLeQ3iEzNedH-1">
          <mxGeometry x="610" y="-20" width="190" height="40" as="geometry" />
        </mxCell>
        <mxCell id="IjKodz7OfLeQ3iEzNedH-26" value="&lt;p class=&quot;MsoNormal&quot;&gt;&lt;b&gt;&lt;font style=&quot;font-size: 24px;&quot;&gt;Reminder System&lt;/font&gt;&lt;/b&gt;&lt;/p&gt;" style="text;whiteSpace=wrap;html=1;" vertex="1" parent="IjKodz7OfLeQ3iEzNedH-1">
          <mxGeometry x="470" y="310" width="300" height="60" as="geometry" />
        </mxCell>
        <mxCell id="IfKHGA8bLEkqaHu-RALr-0" value="Run every 30 mins" style="points=[[0.145,0.145,0],[0.5,0,0],[0.855,0.145,0],[1,0.5,0],[0.855,0.855,0],[0.5,1,0],[0.145,0.855,0],[0,0.5,0]];shape=mxgraph.bpmn.event;html=1;verticalLabelPosition=bottom;labelBackgroundColor=#ffffff;verticalAlign=top;align=center;perimeter=ellipsePerimeter;outlineConnect=0;aspect=fixed;outline=standard;symbol=timer;" vertex="1" parent="IjKodz7OfLeQ3iEzNedH-1">
          <mxGeometry x="90" y="30" width="40" height="40" as="geometry" />
        </mxCell>
        <mxCell id="IfKHGA8bLEkqaHu-RALr-1" value="Get localdatetime now" style="whiteSpace=wrap;html=1;" vertex="1" parent="IjKodz7OfLeQ3iEzNedH-1">
          <mxGeometry x="135" y="95" width="120" height="60" as="geometry" />
        </mxCell>
        <mxCell id="p4hkO_ipRGp67zYmMY9C-5" value="" style="edgeStyle=orthogonalEdgeStyle;rounded=0;orthogonalLoop=1;jettySize=auto;html=1;" edge="1" parent="IjKodz7OfLeQ3iEzNedH-1" source="p4hkO_ipRGp67zYmMY9C-0" target="p4hkO_ipRGp67zYmMY9C-4">
          <mxGeometry relative="1" as="geometry" />
        </mxCell>
        <mxCell id="p4hkO_ipRGp67zYmMY9C-0" value="Loop all reservations" style="whiteSpace=wrap;html=1;" vertex="1" parent="IjKodz7OfLeQ3iEzNedH-1">
          <mxGeometry x="460" y="95" width="120" height="60" as="geometry" />
        </mxCell>
        <mxCell id="p4hkO_ipRGp67zYmMY9C-4" value="Send Notification to contactChannel" style="whiteSpace=wrap;html=1;" vertex="1" parent="IjKodz7OfLeQ3iEzNedH-1">
          <mxGeometry x="610" y="95" width="120" height="60" as="geometry" />
        </mxCell>
        <mxCell id="p4hkO_ipRGp67zYmMY9C-8" value="" style="edgeStyle=orthogonalEdgeStyle;rounded=0;orthogonalLoop=1;jettySize=auto;html=1;" edge="1" parent="IjKodz7OfLeQ3iEzNedH-1" source="p4hkO_ipRGp67zYmMY9C-6">
          <mxGeometry relative="1" as="geometry">
            <mxPoint x="1050" y="130" as="targetPoint" />
          </mxGeometry>
        </mxCell>
        <mxCell id="p4hkO_ipRGp67zYmMY9C-6" value="Has next row?" style="rhombus;whiteSpace=wrap;html=1;" vertex="1" parent="IjKodz7OfLeQ3iEzNedH-1">
          <mxGeometry x="920" y="90" width="80" height="80" as="geometry" />
        </mxCell>
        <mxCell id="p4hkO_ipRGp67zYmMY9C-13" value="" style="edgeStyle=elbowEdgeStyle;elbow=horizontal;endArrow=classic;html=1;curved=0;rounded=0;endSize=8;startSize=8;exitX=0.5;exitY=0;exitDx=0;exitDy=0;entryX=0.5;entryY=0;entryDx=0;entryDy=0;" edge="1" parent="IjKodz7OfLeQ3iEzNedH-1" source="p4hkO_ipRGp67zYmMY9C-6" target="p4hkO_ipRGp67zYmMY9C-0">
          <mxGeometry width="50" height="50" relative="1" as="geometry">
            <mxPoint x="680" y="190" as="sourcePoint" />
            <mxPoint x="730" y="140" as="targetPoint" />
            <Array as="points">
              <mxPoint x="710" y="-60" />
            </Array>
          </mxGeometry>
        </mxCell>
      </root>
    </mxGraphModel>
  </diagram>
  <diagram name="View All Customer Reservation" id="eTgQBE4ioAVmNtmKGAkh">
    <mxGraphModel dx="2143" dy="616" grid="1" gridSize="10" guides="1" tooltips="1" connect="1" arrows="1" fold="1" page="1" pageScale="1" pageWidth="850" pageHeight="1100" math="0" shadow="0">
      <root>
        <mxCell id="muCw3PxxcxRYMJvTZe-v-0" />
        <mxCell id="muCw3PxxcxRYMJvTZe-v-1" parent="muCw3PxxcxRYMJvTZe-v-0" />
        <mxCell id="muCw3PxxcxRYMJvTZe-v-2" value="" style="edgeStyle=orthogonalEdgeStyle;rounded=0;orthogonalLoop=1;jettySize=auto;html=1;" edge="1" parent="muCw3PxxcxRYMJvTZe-v-1" source="muCw3PxxcxRYMJvTZe-v-3" target="muCw3PxxcxRYMJvTZe-v-5">
          <mxGeometry relative="1" as="geometry" />
        </mxCell>
        <mxCell id="muCw3PxxcxRYMJvTZe-v-3" value="start" style="ellipse;whiteSpace=wrap;html=1;" vertex="1" parent="muCw3PxxcxRYMJvTZe-v-1">
          <mxGeometry x="40" y="110" width="50" height="30" as="geometry" />
        </mxCell>
        <mxCell id="muCw3PxxcxRYMJvTZe-v-4" value="" style="edgeStyle=orthogonalEdgeStyle;rounded=0;orthogonalLoop=1;jettySize=auto;html=1;" edge="1" parent="muCw3PxxcxRYMJvTZe-v-1" source="muCw3PxxcxRYMJvTZe-v-5" target="muCw3PxxcxRYMJvTZe-v-7">
          <mxGeometry relative="1" as="geometry" />
        </mxCell>
        <mxCell id="muCw3PxxcxRYMJvTZe-v-5" value="Input customerName" style="shape=parallelogram;perimeter=parallelogramPerimeter;whiteSpace=wrap;html=1;fixedSize=1;" vertex="1" parent="muCw3PxxcxRYMJvTZe-v-1">
          <mxGeometry x="135" y="95" width="125" height="60" as="geometry" />
        </mxCell>
        <mxCell id="muCw3PxxcxRYMJvTZe-v-6" value="" style="edgeStyle=orthogonalEdgeStyle;rounded=0;orthogonalLoop=1;jettySize=auto;html=1;" edge="1" parent="muCw3PxxcxRYMJvTZe-v-1" source="muCw3PxxcxRYMJvTZe-v-7">
          <mxGeometry relative="1" as="geometry">
            <mxPoint x="480" y="125" as="targetPoint" />
          </mxGeometry>
        </mxCell>
        <mxCell id="muCw3PxxcxRYMJvTZe-v-7" value="Get all from reservation where customer_name = customerName" style="whiteSpace=wrap;html=1;" vertex="1" parent="muCw3PxxcxRYMJvTZe-v-1">
          <mxGeometry x="320" y="95" width="120" height="60" as="geometry" />
        </mxCell>
        <mxCell id="muCw3PxxcxRYMJvTZe-v-10" value="end" style="ellipse;whiteSpace=wrap;html=1;" vertex="1" parent="muCw3PxxcxRYMJvTZe-v-1">
          <mxGeometry x="620" y="110" width="50" height="30" as="geometry" />
        </mxCell>
        <mxCell id="muCw3PxxcxRYMJvTZe-v-11" value="reservation db" style="shape=cylinder3;whiteSpace=wrap;html=1;boundedLbl=1;backgroundOutline=1;size=15;" vertex="1" parent="muCw3PxxcxRYMJvTZe-v-1">
          <mxGeometry x="340" y="200" width="60" height="80" as="geometry" />
        </mxCell>
        <mxCell id="muCw3PxxcxRYMJvTZe-v-12" value="" style="endArrow=none;dashed=1;html=1;rounded=0;entryX=0.451;entryY=0.978;entryDx=0;entryDy=0;entryPerimeter=0;" edge="1" parent="muCw3PxxcxRYMJvTZe-v-1" source="muCw3PxxcxRYMJvTZe-v-11" target="muCw3PxxcxRYMJvTZe-v-7">
          <mxGeometry width="50" height="50" relative="1" as="geometry">
            <mxPoint x="500" y="280" as="sourcePoint" />
            <mxPoint x="550" y="230" as="targetPoint" />
          </mxGeometry>
        </mxCell>
        <mxCell id="muCw3PxxcxRYMJvTZe-v-14" value="&lt;font style=&quot;font-size: 12px;&quot;&gt;&lt;span style=&quot;line-height: 115%;&quot;&gt;&lt;font style=&quot;&quot;&gt;GET&amp;nbsp;&lt;/font&gt;&lt;/span&gt;&lt;span style=&quot;line-height: 115%;&quot;&gt;v1/reservation/customerName/{{customerName}}&lt;/span&gt;&lt;/font&gt;" style="text;whiteSpace=wrap;html=1;fillColor=#9999FF;" vertex="1" parent="muCw3PxxcxRYMJvTZe-v-1">
          <mxGeometry x="-70" y="170" width="300" height="30" as="geometry" />
        </mxCell>
        <mxCell id="muCw3PxxcxRYMJvTZe-v-15" value="" style="edgeStyle=orthogonalEdgeStyle;rounded=0;orthogonalLoop=1;jettySize=auto;html=1;" edge="1" parent="muCw3PxxcxRYMJvTZe-v-1" source="muCw3PxxcxRYMJvTZe-v-16" target="muCw3PxxcxRYMJvTZe-v-10">
          <mxGeometry relative="1" as="geometry" />
        </mxCell>
        <mxCell id="muCw3PxxcxRYMJvTZe-v-16" value="Output List of Reservations Response" style="shape=parallelogram;perimeter=parallelogramPerimeter;whiteSpace=wrap;html=1;fixedSize=1;" vertex="1" parent="muCw3PxxcxRYMJvTZe-v-1">
          <mxGeometry x="470" y="95" width="120" height="60" as="geometry" />
        </mxCell>
        <UserObject label="[&lt;span style=&quot;background-color: initial;&quot;&gt;&amp;nbsp; &amp;nbsp; {&lt;/span&gt;&lt;div&gt;&amp;nbsp; &amp;nbsp; &amp;nbsp; &amp;nbsp; &quot;reservationId&quot;: &quot;RESV2412190337331233&quot;,&lt;/div&gt;&lt;div&gt;&amp;nbsp; &amp;nbsp; &amp;nbsp; &amp;nbsp; &quot;customerName&quot;: &quot;Kim&quot;,&lt;/div&gt;&lt;div&gt;&amp;nbsp; &amp;nbsp; &amp;nbsp; &amp;nbsp; &quot;phoneNumber&quot;: &quot;9170239821&quot;,&lt;/div&gt;&lt;div&gt;&amp;nbsp; &amp;nbsp; &amp;nbsp; &amp;nbsp; &quot;email&quot;: &quot;kim@email.com&quot;,&lt;/div&gt;&lt;div&gt;&amp;nbsp; &amp;nbsp; &amp;nbsp; &amp;nbsp; &quot;reservationDatetime&quot;: &quot;2024-12-19T06:11:30&quot;,&lt;/div&gt;&lt;div&gt;&amp;nbsp; &amp;nbsp; &amp;nbsp; &amp;nbsp; &quot;guestNumber&quot;: 3,&lt;/div&gt;&lt;div&gt;&amp;nbsp; &amp;nbsp; &amp;nbsp; &amp;nbsp; &quot;status&quot;: true,&lt;/div&gt;&lt;div&gt;&amp;nbsp; &amp;nbsp; &amp;nbsp; &amp;nbsp; &quot;contactChannel&quot;: &quot;sms&quot;,&lt;/div&gt;&lt;div&gt;&amp;nbsp; &amp;nbsp; &amp;nbsp; &amp;nbsp; &quot;createdDate&quot;: &quot;2024-12-19T15:37:33&quot;,&lt;/div&gt;&lt;div&gt;&amp;nbsp; &amp;nbsp; &amp;nbsp; &amp;nbsp; &quot;updatedDate&quot;: &quot;2024-12-19T15:37:33&quot;&lt;/div&gt;&lt;div&gt;&amp;nbsp; &amp;nbsp; }&lt;/div&gt;&lt;div&gt;]&lt;/div&gt;&lt;div&gt;&lt;br&gt;&lt;/div&gt;" id="muCw3PxxcxRYMJvTZe-v-19">
          <mxCell style="text;whiteSpace=wrap;html=1;align=left;fillColor=#FFF2CC;" vertex="1" parent="muCw3PxxcxRYMJvTZe-v-1">
            <mxGeometry x="440" y="160" width="310" height="220" as="geometry" />
          </mxCell>
        </UserObject>
        <mxCell id="muCw3PxxcxRYMJvTZe-v-29" value="&lt;p class=&quot;MsoNormal&quot;&gt;&lt;span style=&quot;font-size: 24px;&quot;&gt;&lt;b&gt;Get All Reservation by Customer Name&lt;/b&gt;&lt;/span&gt;&lt;/p&gt;" style="text;whiteSpace=wrap;html=1;" vertex="1" parent="muCw3PxxcxRYMJvTZe-v-1">
          <mxGeometry x="30" y="410" width="480" height="60" as="geometry" />
        </mxCell>
      </root>
    </mxGraphModel>
  </diagram>
</mxfile>
